Coordinates
version=1
nRows=14
nColumns=24
inDegrees=yes

Units are S.I. units (second, meters, Newtons, ...)
Angles are in degrees.

endheader
time	pelvis_tilt	pelvis_list	pelvis_rotation	pelvis_tx	pelvis_ty	pelvis_tz	hip_flexion_r	hip_adduction_r	hip_rotation_r	knee_angle_r	ankle_angle_r	subtalar_angle_r	mtp_angle_r	hip_flexion_l	hip_adduction_l	hip_rotation_l	knee_angle_l	ankle_angle_l	subtalar_angle_l	mtp_angle_l	lumbar_extension	lumbar_bending	lumbar_rotation
      5.87000000	     -0.48518759	      2.69294729	     -1.71654417	      1.36465231	      0.68358454	     -0.20378516	     -6.78824488	      4.75355662	     -7.89875166	     -4.51000866	     13.06749555	    -10.90058759	      0.00000000	     26.86924827	     -1.79404313	     -7.84256373	    -43.80600985	      1.75765712	    -28.11581017	      0.00000000	    -14.82482247	     -7.07863627	      6.89561744
      5.88000000	     -0.58020198	      2.22135430	     -2.94052160	      1.37511888	      0.68191378	     -0.20314123	     -8.05997917	      5.01719523	     -6.71751026	     -3.84888687	     13.30411604	    -10.24721382	      0.00000000	     26.91244233	     -2.60433284	     -8.50182522	    -39.46927984	      1.87463963	    -28.08584276	      0.00000000	    -14.66185706	     -6.30638005	      7.55109699
      5.89000000	     -0.44720645	      1.88438806	     -4.10559666	      1.38578105	      0.68020147	     -0.20259382	     -9.64488294	      5.07618267	     -5.36767052	     -3.11988526	     13.58797116	     -9.87289287	      0.00000000	     26.47152712	     -3.16440349	     -8.98588377	    -34.77913072	      2.24566790	    -26.91415605	      0.00000000	    -14.79750223	     -5.71876379	      8.14727706
      5.90000000	     -0.46382902	      1.46171825	     -5.25793851	      1.39656819	      0.67807783	     -0.20213648	    -11.07259243	      5.16285016	     -3.93308276	     -2.45316459	     13.82491642	     -9.58488509	      0.00000000	     26.07164738	     -3.78316008	     -9.34161175	    -30.02533229	      3.20470200	    -24.32159378	      0.00000000	    -14.77637991	     -5.01022991	      8.74805962
      5.91000000	     -0.52365190	      1.02237763	     -6.38999533	      1.40752184	      0.67568221	     -0.20177322	    -12.45535072	      5.20444140	     -2.52240158	     -1.84313689	     14.10998193	     -9.29309251	      0.00000000	     25.60343894	     -4.34750761	     -9.43431364	    -25.24237459	      4.39081712	    -20.74810134	      0.00000000	    -14.72147818	     -4.27998793	      9.30600844
      5.92000000	     -0.59741800	      0.60311486	     -7.48825908	      1.41867820	      0.67307037	     -0.20154844	    -13.82680755	      5.16217336	     -1.17662056	     -1.27172092	     14.43803245	     -8.99753029	      0.00000000	     25.07056316	     -4.81443726	     -9.17404049	    -20.54480219	      5.67635254	    -16.51936661	      0.00000000	    -14.66279894	     -3.56030088	      9.81016134
      5.93000000	     -0.59798577	      0.19523488	     -8.59044482	      1.43001028	      0.67037773	     -0.20142744	    -15.24556743	      5.02727411	      0.06668780	     -0.79137934	     14.82823327	     -8.65530350	      0.00000000	     24.37227144	     -5.18905065	     -8.38495015	    -15.97482645	      6.57753065	    -12.56309049	      0.00000000	    -14.71450752	     -2.86593959	     10.34500036
      5.94000000	     -0.72565970	     -0.13532365	     -9.61107840	      1.44157214	      0.66745144	     -0.20144067	    -16.51196195	      4.79193956	      1.18272962	     -0.35233190	     15.14923005	     -8.31749054	      0.00000000	     23.77721098	     -5.44854495	     -6.93531662	    -11.72355014	      7.23832392	     -9.18678985	      0.00000000	    -14.59870568	     -2.23537558	     10.69080677
      5.95000000	     -0.91802062	     -0.37513873	    -10.61164386	      1.45332759	      0.66442177	     -0.20151226	    -17.63848732	      4.43318548	      2.20970461	     -0.04287218	     15.49588077	     -7.94061069	      0.00000000	     23.22849155	     -5.64395378	     -4.95508454	     -7.91203849	      7.39546765	     -7.13531282	      0.00000000	    -14.39015722	     -1.70554334	     10.98094338
      5.96000000	     -1.04426358	     -0.51708970	    -11.55055459	      1.46523659	      0.66148671	     -0.20164283	    -18.73185604	      3.94765689	      3.14061401	      0.10023682	     15.84071318	     -7.58155633	      0.00000000	     22.73841213	     -5.79053965	     -3.05960968	     -4.88848689	      7.44314062	     -5.91049301	      0.00000000	    -14.25687711	     -1.30915393	     11.13730206
      5.97000000	     -0.93266468	     -0.40166683	    -12.33555398	      1.47740285	      0.65884984	     -0.20196581	    -19.96698241	      3.17156228	      3.75799271	      0.15855093	     15.93779487	     -7.38170094	      0.00000000	     22.07136917	     -5.57985896	     -0.92255528	     -2.51139146	      6.58937123	     -6.84574552	      0.00000000	    -14.34081823	     -1.25250326	     11.15021221
      5.98000000	     -0.88266433	     -0.22143075	    -13.10503480	      1.48957608	      0.65642857	     -0.20236123	    -20.92173017	      2.34247554	      4.33273803	     -0.12795463	     16.02061047	     -7.06417047	      0.00000000	     21.84476556	     -5.32875442	      0.06368135	     -1.44034154	      5.84365563	     -7.71166092	      0.00000000	    -14.37914369	     -1.26979348	     11.15919981
      5.99000000	     -0.83939535	      0.21476009	    -13.68685603	      1.50194610	      0.65423611	     -0.20303372	    -21.63767783	      1.33164626	      4.61105789	     -0.72873078	     15.99987801	     -6.94416183	      0.00000000	     21.91005399	     -4.69839816	      0.65171484	     -1.41502940	      4.70157395	     -9.46627423	      0.00000000	    -14.33265327	     -1.53709316	     10.95780131
      6.00000000	     -0.75771675	      0.88103959	    -14.16399254	      1.51445587	      0.65237839	     -0.20390320	    -22.14261832	      0.14392780	      4.73601119	     -1.68185329	     15.87966543	     -7.05243280	      0.00000000	     22.24060722	     -3.75802381	      0.55191943	     -2.44832341	      3.24440712	    -11.25292814	      0.00000000	    -14.28288028	     -2.07270314	     10.69865750
